<svg width="212" height="129" viewBox="0 0 212 129" fill="none" xmlns="http://www.w3.org/2000/svg">
<g clip-path="url(#clip0_508_17097)">
<path d="M20.4255 119.274C16.5344 119.274 13.0534 118.597 9.98695 117.244C6.91614 115.891 4.48337 113.706 2.69298 110.693C0.898237 107.679 0.00195312 103.68 0.00195312 98.6961V71.8414C0.00195312 66.8579 0.898237 62.8605 2.69298 59.8449C4.48337 56.8315 6.91831 54.6462 9.98695 53.2932C13.0534 51.9425 16.4454 51.2638 20.1542 51.2638C24.2863 51.2638 27.9061 51.971 31.0051 53.3855C34.1041 54.8021 36.5369 56.77 38.2991 59.2936C40.0613 61.8172 40.9424 64.8306 40.9424 68.336C40.9424 70.1831 40.5344 71.4285 39.7119 72.0742C38.8916 72.7199 37.6893 73.0428 36.1072 73.0428C34.8312 73.0428 33.72 72.8122 32.7803 72.3509C31.8385 71.8897 31.3328 71.0441 31.2742 69.8142C31.0919 68.0307 30.6688 66.3857 30.0003 64.8768C29.3298 63.3701 28.2338 62.1709 26.7169 61.277C25.1977 60.3852 23.1013 59.9394 20.4255 59.9394C17.0205 59.9394 14.362 60.908 12.4479 62.8451C10.5338 64.7823 9.57461 67.7825 9.57461 71.8436V98.6983C9.57461 102.759 10.5317 105.76 12.4479 107.697C14.3642 109.636 17.0227 110.605 20.4255 110.605C23.8283 110.605 26.413 109.636 28.3575 107.697C30.302 105.76 31.2764 102.759 31.2764 98.6983V91.1319H22.0662C21.0939 91.1319 20.3344 90.7322 19.7875 89.9327C19.2406 89.1332 18.9671 88.2108 18.9671 87.1631C18.9671 86.2406 19.2406 85.3643 19.7875 84.5341C20.3365 83.7039 21.0939 83.2888 22.0662 83.2888H37.75C38.7852 83.2888 39.5752 83.6116 40.1221 84.2574C40.6711 84.9031 40.9424 85.6872 40.9424 86.6096V98.6983C40.9424 103.682 40.0331 107.681 38.2058 110.695C36.3828 113.71 33.9219 115.894 30.8207 117.247C27.7173 118.602 24.2537 119.276 20.4233 119.276L20.4255 119.274Z" fill="#D96886"/>
<path d="M174.344 118.72C173.07 118.72 172.034 118.413 171.244 117.798C170.455 117.183 170.06 116.445 170.06 115.584V54.3979C170.06 53.5369 170.455 52.7989 171.244 52.1839C172.034 51.569 173.07 51.2615 174.344 51.2615H190.483C194.313 51.2615 197.792 51.9401 200.924 53.2909C204.053 54.646 206.514 56.8292 208.311 59.8426C210.102 62.8582 211 66.8556 211 71.8391V98.1403C211 103.124 210.102 107.123 208.311 110.137C206.516 113.152 204.053 115.336 200.924 116.689C197.792 118.044 194.313 118.718 190.483 118.718H174.344V118.72ZM179.726 110.045H190.483C193.888 110.045 196.549 109.076 198.463 107.137C200.375 105.199 201.334 102.199 201.334 98.1381V71.8369C201.334 67.7758 200.377 64.7778 198.463 62.8384C196.547 60.8991 193.886 59.9327 190.483 59.9327H179.726V110.042V110.045Z" fill="#D96886"/>
<path d="M65.3785 76.3987V71.8413C65.3785 67.7802 66.3356 64.7822 68.2519 62.8428C70.1681 60.9034 72.8266 59.9371 76.2294 59.9371C79.6323 59.9371 82.2951 60.9056 84.2092 62.8428C86.1254 64.7822 87.0803 67.7802 87.0803 71.8413V76.3987H96.7463V71.8413C96.7463 66.8578 95.837 62.8604 94.0097 59.8448C92.1868 56.8314 89.7258 54.6461 86.6246 53.2931C83.5212 51.9423 80.0576 51.2637 76.2273 51.2637C72.3969 51.2637 68.8552 51.9423 65.7887 53.2931C62.7179 54.6482 60.2851 56.8314 58.4947 59.8448C56.7 62.8604 55.8037 66.8578 55.8037 71.8413V76.3987H65.3785Z" fill="#D96886"/>
<path d="M122.185 76.3987V71.8413C122.185 67.7802 123.142 64.7822 125.058 62.8428C126.975 60.9034 129.633 59.9371 133.036 59.9371C136.439 59.9371 139.102 60.9056 141.016 62.8428C142.932 64.7822 143.887 67.7802 143.887 71.8413V76.3987H153.553V71.8413C153.553 66.8578 152.644 62.8604 150.816 59.8448C148.993 56.8314 146.532 54.6461 143.431 53.2931C140.328 51.9423 136.864 51.2637 133.034 51.2637C129.204 51.2637 125.662 51.9423 122.595 53.2931C119.525 54.6482 117.092 56.8314 115.301 59.8448C113.507 62.8604 112.61 66.8578 112.61 71.8413V76.3987H122.185Z" fill="#D96886"/>
<path d="M87.0808 91.7402V98.6939C87.0808 102.755 86.1086 105.755 84.1619 107.692C82.2174 109.632 79.5438 110.6 76.1388 110.6C72.7338 110.6 70.0883 109.632 68.2068 107.692C66.3209 105.755 65.379 102.755 65.379 98.6939V91.7402H55.8042V98.6939C55.8042 103.677 56.7005 107.677 58.4952 110.69C60.2856 113.706 62.7206 115.889 65.7892 117.242C68.8557 118.597 72.3084 119.271 76.1388 119.271C79.9691 119.271 83.5239 118.595 86.6251 117.242C89.7241 115.889 92.1872 113.704 94.0102 110.69C95.8353 107.677 96.7468 103.677 96.7468 98.6939V91.7402H87.0808Z" fill="#EA9980"/>
<path d="M60.6371 88.6522C63.1385 88.6522 65.1662 86.6 65.1662 84.0684C65.1662 81.5368 63.1385 79.4846 60.6371 79.4846C58.1357 79.4846 56.1079 81.5368 56.1079 84.0684C56.1079 86.6 58.1357 88.6522 60.6371 88.6522Z" fill="#EA9980"/>
<path d="M91.9139 88.6522C94.4153 88.6522 96.4431 86.6 96.4431 84.0684C96.4431 81.5368 94.4153 79.4846 91.9139 79.4846C89.4125 79.4846 87.3848 81.5368 87.3848 84.0684C87.3848 86.6 89.4125 88.6522 91.9139 88.6522Z" fill="#EA9980"/>
<path d="M143.887 91.7402V98.6939C143.887 102.755 142.915 105.755 140.969 107.692C139.024 109.632 136.35 110.6 132.945 110.6C129.54 110.6 126.895 109.632 125.013 107.692C123.128 105.755 122.186 102.755 122.186 98.6939V91.7402H112.611V98.6939C112.611 103.677 113.507 107.677 115.302 110.69C117.092 113.706 119.527 115.889 122.596 117.242C125.662 118.597 129.115 119.271 132.945 119.271C136.776 119.271 140.331 118.595 143.432 117.242C146.531 115.889 148.994 113.704 150.817 110.69C152.642 107.677 153.553 103.677 153.553 98.6939V91.7402H143.887Z" fill="#EA9980"/>
<path d="M117.444 88.6522C119.945 88.6522 121.973 86.6 121.973 84.0684C121.973 81.5368 119.945 79.4846 117.444 79.4846C114.942 79.4846 112.915 81.5368 112.915 84.0684C112.915 86.6 114.942 88.6522 117.444 88.6522Z" fill="#EA9980"/>
<path d="M148.721 88.6522C151.222 88.6522 153.25 86.6 153.25 84.0684C153.25 81.5368 151.222 79.4846 148.721 79.4846C146.219 79.4846 144.191 81.5368 144.191 84.0684C144.191 86.6 146.219 88.6522 148.721 88.6522Z" fill="#EA9980"/>
<path d="M17.0925 13.917L13.7135 15.9442C13.082 14.8351 12.4787 14.1103 11.9079 13.772C11.3111 13.3855 10.5429 13.1922 9.60103 13.1922C8.44433 13.1922 7.48511 13.5238 6.72337 14.1871C5.95947 14.8394 5.57969 15.6587 5.57969 16.647C5.57969 18.011 6.58014 19.107 8.58322 19.9394L11.3372 21.0793C13.579 21.9952 15.2175 23.1153 16.2548 24.4353C17.2921 25.7553 17.8108 27.3762 17.8108 29.2936C17.8108 31.8633 16.9644 33.9872 15.2717 35.663C13.5681 37.352 11.4522 38.1954 8.92394 38.1954C6.52806 38.1954 4.54886 37.4772 2.9885 36.043C1.44984 34.6066 0.490621 32.5859 0.11084 29.9811L4.32967 29.041C4.52064 30.6817 4.85485 31.815 5.33012 32.4432C6.18734 33.649 7.43953 34.253 9.08453 34.253C10.3845 34.253 11.463 33.8137 12.3203 32.933C13.1775 32.0522 13.6072 30.9365 13.6072 29.5857C13.6072 29.0432 13.5334 28.5447 13.3837 28.0922C13.2339 27.6398 13.0017 27.2247 12.687 26.8447C12.3702 26.4647 11.9622 26.1089 11.463 25.7773C10.9617 25.4456 10.3671 25.1293 9.67482 24.8262L7.00984 23.7039C3.23156 22.0896 1.34133 19.7263 1.34133 16.6141C1.34133 14.5144 2.13345 12.7595 3.71985 11.3495C5.30408 9.92622 7.27894 9.2146 9.63792 9.2146C12.8194 9.2146 15.3064 10.7828 17.0925 13.9192V13.917Z" fill="#EA9980"/>
<path d="M27.7307 20.6839H39.6385V9.75488H43.8052V37.6924H39.6385V24.6461H27.7307V37.6924H23.564V9.75488H27.7307V20.6839Z" fill="#EA9980"/>
<path d="M67.3692 30.9079H55.5504L52.4752 37.6924H47.9873L61.6464 8L74.8237 37.6946H70.2642L67.367 30.9101L67.3692 30.9079ZM65.6699 26.9457L61.5748 17.4465L57.2844 26.9457H65.6699Z" fill="#EA9980"/>
<path d="M88.3567 25.7882L96.9028 37.6946H91.8073L83.923 26.2582H83.1721V37.6946H79.0054V9.75488H83.8861C87.5342 9.75488 90.1666 10.4489 91.7877 11.8348C93.576 13.3789 94.4701 15.4171 94.4701 17.9517C94.4701 19.9306 93.9102 21.6305 92.7882 23.0538C91.6684 24.477 90.1905 25.3885 88.3545 25.786L88.3567 25.7882ZM83.1721 22.586H84.4959C88.4413 22.586 90.414 21.0595 90.414 18.0088C90.414 15.1491 88.4956 13.7193 84.6565 13.7193H83.1721V22.586Z" fill="#EA9980"/>
<path d="M117.019 13.7171H105.951V20.4291H116.695V24.3914H105.951V33.728H117.019V37.6902H101.786V9.75488H117.019V13.7171Z" fill="#EA9980"/>
<path d="M153.432 13.7171H143.814V20.4291H153.093V24.3914H143.814V37.6902H139.647V9.75488H153.432V13.7171Z" fill="#EA9980"/>
<path d="M157.651 23.5985C157.651 19.667 159.075 16.289 161.924 13.4645C164.76 10.6422 168.17 9.22998 172.15 9.22998C176.13 9.22998 179.457 10.6532 182.269 13.4997C185.095 16.3462 186.508 19.7659 186.508 23.7588C186.508 27.7518 185.088 31.1847 182.252 33.9828C179.403 36.7942 175.965 38.1998 171.935 38.1998C168.372 38.1998 165.171 36.9523 162.334 34.455C159.211 31.692 157.651 28.0747 157.651 23.5985ZM161.852 23.6534C161.852 26.7415 162.877 29.2804 164.927 31.2703C166.965 33.2602 169.32 34.2552 171.989 34.2552C174.886 34.2552 177.33 33.2427 179.32 31.2154C181.31 29.164 182.306 26.6668 182.306 23.7237C182.306 20.7806 181.323 18.2482 179.357 16.2319C177.402 14.2047 174.982 13.1922 172.098 13.1922C169.214 13.1922 166.8 14.2047 164.821 16.2319C162.842 18.235 161.852 20.7081 161.852 23.6512V23.6534Z" fill="#EA9980"/>
<path d="M201.829 25.7882L210.375 37.6946H205.279L197.395 26.2582H196.644V37.6946H192.478V9.75488H197.358C201.006 9.75488 203.639 10.4489 205.262 11.8348C207.05 13.3789 207.944 15.4171 207.944 17.9517C207.944 19.9306 207.385 21.6305 206.265 23.0538C205.145 24.477 203.667 25.3885 201.831 25.786L201.829 25.7882ZM196.644 22.586H197.968C201.913 22.586 203.886 21.0595 203.886 18.0088C203.886 15.1491 201.968 13.7193 198.129 13.7193H196.644V22.586Z" fill="#EA9980"/>
</g>
<defs>
<clipPath id="clip0_508_17097">
<rect width="211" height="111.274" fill="white" transform="translate(0 8)"/>
</clipPath>
</defs>
</svg>
